<svg id="carSVG" xmlns="http://www.w3.org/2000/svg" width="100%" height="100%" viewBox="0 50 500 175" >
  <!-- Car Body -->
  <!--
  stroke-width="5" stroke="red" 
  -->

  <path 
    d="m267 76 l-21 -4 -144 0 -90 47 0 54 
    11 11 23 0 15 -30 15 -10 30 0 15 10 
    15 30 220 0 15 -30 15 -10 30 0 15 10 
    15 30 25 0 7 -7 -13 -38 -20 -10 -95 -15 z"
    fill="blue" id="carBody" 
  />

  <!-- Rear Window -->
  <path
    d="m65 105 40 -25 65 0 0 34 -112 0 z"
    fill="white" 
    id="rearWindow"
  />

  <!-- Front Window -->
  <path 
    d="m300 105 l-40 -25 -78 0 0 34 122 0 z" 
    fill="white" 
    id="frontWindow" 
  />

  <!-- Rear Wheel -->
  <circle 
    r =" 35" cy =" 185" cx =" 90" 
    fill =" black" 
    id =" rearWheel" 
  />

  <!-- Front Wheel -->
  <circle 
    r =" 35" cy =" 185" cx =" 400" 
    fill =" black" 
    id =" frontWheel" 
  />
</svg>
